<?xml version="1.0" encoding="UTF-8" standalone="no"?>
<svg
   version="1.0"
   id="svg2"
   height="256"
   width="256"
   inkscape:version="1.1-dev (0741f45a0, 2020-08-20, custom)"
   sodipodi:docname="noconnection.svg"
   inkscape:export-filename="/tmp/blastpit.png"
   inkscape:export-xdpi="90"
   inkscape:export-ydpi="90"
   xmlns:inkscape="http://www.inkscape.org/namespaces/inkscape"
   xmlns:sodipodi="http://sodipodi.sourceforge.net/DTD/sodipodi-0.dtd"
   xmlns:xlink="http://www.w3.org/1999/xlink"
   xmlns="http://www.w3.org/2000/svg"
   xmlns:svg="http://www.w3.org/2000/svg"
   xmlns:rdf="http://www.w3.org/1999/02/22-rdf-syntax-ns#"
   xmlns:cc="http://creativecommons.org/ns#"
   xmlns:dc="http://purl.org/dc/elements/1.1/">
  <sodipodi:namedview
     pagecolor="#ffffff"
     bordercolor="#666666"
     borderopacity="1"
     objecttolerance="10"
     gridtolerance="10"
     guidetolerance="10"
     inkscape:pageopacity="0"
     inkscape:pageshadow="2"
     inkscape:window-width="2560"
     inkscape:window-height="1524"
     id="namedview4538"
     showgrid="false"
     inkscape:zoom="3.7786019"
     inkscape:cx="93.685445"
     inkscape:cy="118.29772"
     inkscape:current-layer="svg2"
     inkscape:window-x="0"
     inkscape:window-y="28"
     inkscape:window-maximized="0" />
  <defs
     id="defs4">
    <linearGradient
       id="linearGradient4542">
      <stop
         style="stop-color:#233e22;stop-opacity:1"
         offset="0"
         id="stop4544" />
      <stop
         style="stop-color:#3b792d;stop-opacity:1"
         offset="1"
         id="stop4546" />
    </linearGradient>
    <linearGradient
       id="linearGradient3031">
      <stop
         id="stop3033"
         offset="0"
         style="stop-color:#dbdbdb;stop-opacity:1;" />
      <stop
         id="stop3035"
         offset="1"
         style="stop-color:#848484;stop-opacity:1;" />
    </linearGradient>
    <filter
       color-interpolation-filters="sRGB"
       id="filter3063">
      <feFlood
         result="flood"
         flood-color="rgb(0,0,0)"
         flood-opacity="1"
         id="feFlood3065" />
      <feComposite
         result="composite1"
         operator="in"
         in="flood"
         in2="SourceGraphic"
         id="feComposite3067" />
      <feGaussianBlur
         result="blur"
         stdDeviation="1"
         id="feGaussianBlur3069" />
      <feOffset
         result="offset"
         dy="2.5"
         dx="2.5"
         id="feOffset3071" />
      <feComposite
         result="composite2"
         operator="over"
         in="SourceGraphic"
         in2="offset"
         id="feComposite3073" />
    </filter>
    <linearGradient
       gradientTransform="matrix(0.51666663,0,0,0.51666663,24.666674,168.66667)"
       y2="400"
       x2="193.94928"
       y1="-0.020405082"
       x1="192.93913"
       gradientUnits="userSpaceOnUse"
       id="linearGradient3943"
       xlink:href="#linearGradient3031" />
    <filter
       style="color-interpolation-filters:sRGB;"
       id="filter4149">
      <feFlood
         result="flood"
         flood-color="rgb(0,0,0)"
         flood-opacity="0.7"
         id="feFlood4151" />
      <feComposite
         result="composite1"
         operator="in"
         in="flood"
         in2="SourceGraphic"
         id="feComposite4153" />
      <feGaussianBlur
         result="blur"
         stdDeviation="3"
         in="composite"
         id="feGaussianBlur4155" />
      <feOffset
         result="offset"
         dy="4"
         dx="-1"
         id="feOffset4157" />
      <feComposite
         result="composite2"
         operator="over"
         in="SourceGraphic"
         in2="offset"
         id="feComposite4159" />
    </filter>
    <linearGradient
       y2="400"
       x2="193.94928"
       y1="-0.020405082"
       x1="192.93913"
       gradientTransform="matrix(0.51666663,0,0,0.51666663,24.666672,24.666678)"
       gradientUnits="userSpaceOnUse"
       id="linearGradient4346"
       xlink:href="#linearGradient3031" />
    <linearGradient
       gradientUnits="userSpaceOnUse"
       y2="387.93204"
       x2="132.74751"
       y1="153.4689"
       x1="131.88551"
       id="linearGradient4984"
       xlink:href="#linearGradient3031" />
    <linearGradient
       gradientUnits="userSpaceOnUse"
       y2="127.71894"
       x2="201.42117"
       y1="127.71894"
       x1="56.505981"
       id="linearGradient8530"
       xlink:href="#linearGradient3031" />
    <filter
       id="filter8654"
       style="color-interpolation-filters:sRGB;">
      <feFlood
         id="feFlood8656"
         result="flood"
         flood-color="rgb(0,0,0)"
         flood-opacity="0.498039" />
      <feComposite
         id="feComposite8658"
         result="composite1"
         operator="in"
         in2="SourceGraphic"
         in="flood" />
      <feGaussianBlur
         id="feGaussianBlur8660"
         result="blur"
         stdDeviation="1"
         in="composite1" />
      <feOffset
         id="feOffset8662"
         result="offset"
         dy="-1"
         dx="1.3" />
      <feComposite
         id="feComposite8664"
         result="composite2"
         operator="atop"
         in2="offset"
         in="offset" />
    </filter>
    <linearGradient
       gradientTransform="matrix(-1,0,0,1,227.99891,-2.2419478)"
       y2="141.75403"
       x2="174.09953"
       y1="40.888531"
       x1="90.377327"
       gradientUnits="userSpaceOnUse"
       id="linearGradient8668"
       xlink:href="#linearGradient4542" />
    <g
       id="raypair">
      <path
         id="path4261"
         stroke="none"
         fill="black"
         d="M -2,0 l -5,-135 h 14 l -5,135" />
      <path
         id="path4263"
         transform="rotate(15)"
         stroke="none"
         fill="black"
         d="M -2,0 l -3,-90 h 10 l -3,90" />
    </g>
    <g
       id="triangle">
      <path
         id="path4266"
         stroke-linejoin="round"
         d="M 0,-330 l 280,490 h -560 z" />
    </g>
    <filter
       style="color-interpolation-filters:sRGB;"
       inkscape:label="Drop Shadow"
       id="filter4722">
      <feFlood
         flood-opacity="0.317647"
         flood-color="rgb(0,0,0)"
         result="flood"
         id="feFlood4724" />
      <feComposite
         in="flood"
         in2="SourceGraphic"
         operator="in"
         result="composite1"
         id="feComposite4726" />
      <feGaussianBlur
         in="composite1"
         stdDeviation="5.2"
         result="blur"
         id="feGaussianBlur4728" />
      <feOffset
         dx="19.1"
         dy="12.8"
         result="offset"
         id="feOffset4730" />
      <feComposite
         in="offset"
         in2="offset"
         operator="atop"
         result="composite2"
         id="feComposite4732" />
    </filter>
    <marker
       id="ArrowEnd"
       markerHeight="3"
       markerUnits="strokeWidth"
       markerWidth="4"
       orient="auto"
       refX="0"
       refY="5"
       viewBox="0 0 10 10">
      <path
         d="M 0 0 L 10 5 L 0 10 z"
         id="path4" />
    </marker>
    <marker
       id="ArrowStart"
       markerHeight="3"
       markerUnits="strokeWidth"
       markerWidth="4"
       orient="auto"
       refX="10"
       refY="5"
       viewBox="0 0 10 10">
      <path
         d="M 10 0 L 0 5 L 10 10 z"
         id="path6" />
    </marker>
  </defs>
  <metadata
     id="metadata7">
    <rdf:RDF>
      <cc:Work
         rdf:about="">
        <dc:format>image/svg+xml</dc:format>
        <dc:type
           rdf:resource="http://purl.org/dc/dcmitype/StillImage" />
      </cc:Work>
    </rdf:RDF>
  </metadata>
  <path
     inkscape:connector-curvature="0"
     style="display:inline;opacity:0.70999995;fill:url(#linearGradient8530);fill-opacity:1;stroke:#a7a7a7;stroke-width:0.40000001;stroke-miterlimit:4;stroke-dasharray:none;stroke-opacity:1;filter:url(#filter8654)"
     d="m 175.94989,236.88824 c 0.0944,-6.95562 -0.0136,-11.02321 -0.32862,-12.37186 -0.32369,-1.38575 -0.33893,-2.08983 -0.0491,-2.26895 0.26768,-0.16543 0.33106,-1.3352 0.17459,-3.22237 -0.1351,-1.62947 -0.34849,-4.50197 -0.47421,-6.38333 -0.12572,-1.88137 -0.58895,-5.49026 -1.02939,-8.01975 -0.44044,-2.5295 -0.69235,-5.09285 -0.5598,-5.69634 0.1331,-0.60599 0.0503,-1.21514 -0.18499,-1.36055 -0.81378,-0.50294 -0.42019,-1.03452 0.58008,-0.78346 0.99673,0.25016 1.00608,0.22791 1.00608,-2.39272 0,-1.45488 -0.64234,-6.1377 -1.42743,-10.40625 -1.12488,-6.116 -1.40801,-8.614 -1.33579,-11.78533 0.0504,-2.21337 -0.0447,-4.66581 -0.2114,-5.44986 -0.26703,-1.25611 -0.18611,-1.48812 0.68089,-1.95212 1.4915,-0.79823 2.38393,-6.84611 2.59614,-17.59379 l 0.16776,-8.49606 -1.19322,-2.3696 c -1.54233,-3.06292 -1.55026,-4.38319 -0.0317,-5.28023 2.01522,-1.19042 2.72618,-4.13555 3.76619,-15.60122 0.0803,-0.88535 0.26529,-2.71575 0.41108,-4.06755 0.25416,-2.35658 0.18832,-2.61066 -1.59829,-6.16802 l -1.86337,-3.71018 2.53477,-2.69566 c 2.39173,-2.543538 2.58594,-2.899481 3.44156,-6.307374 1.20106,-4.783811 1.144,-7.074055 -0.3399,-13.64251 -1.68308,-7.450164 -2.71572,-9.929506 -4.3672,-10.485554 l -1.27179,-0.428207 1.12754,-1.497288 c 0.62014,-0.823508 1.51036,-1.602536 1.97826,-1.731169 1.00745,-0.276974 1.68439,-2.193157 2.36122,-6.683865 l 0.46558,-3.089086 -3.54844,-4.511096 c -1.97672,-2.512977 -4.54212,-6.403112 -5.79185,-8.782651 -1.88868,-3.596144 -2.21239,-4.514799 -2.04719,-5.809882 0.11103,-0.870523 -0.0795,-2.347614 -0.43901,-3.402583 l -0.63521,-1.864262 -1.73629,1.973161 -1.73629,1.973161 -3.5647,-0.683345 c -4.37538,-0.838749 -4.66637,-0.84058 -6.75608,-0.04251 -1.47831,0.564572 -1.78729,0.916015 -2.5965,2.953309 -0.90703,2.283538 -0.98944,2.358293 -6.58532,5.973092 -3.4067,2.200642 -6.95082,4.135756 -8.88626,4.851947 -6.38386,2.362307 -6.49077,2.422829 -7.24872,4.103674 -1.13547,2.51802 -0.66658,7.901454 1.18144,13.564306 l 1.47525,4.52058 -0.5377,3.729271 -0.53771,3.729271 -2.27318,-3.42067 c -1.55993,-2.347364 -2.4778,-4.241434 -2.9253,-6.036477 -1.28823,-5.167417 -1.45093,-5.655164 -1.81205,-5.43198 -0.20143,0.124492 -1.52187,0.107952 -2.9343,-0.03674 -2.39503,-0.245375 -2.55631,-0.324601 -2.39359,-1.175817 0.32712,-1.711212 -0.87432,-2.827981 -3.58463,-3.332015 -1.39241,-0.258944 -2.85117,-0.813242 -3.334,-1.266835 -0.64534,-0.606263 -1.13155,-0.733416 -1.95864,-0.512215 -1.08219,0.289421 -1.02598,0.369251 3.43432,4.877687 l 4.53452,4.583452 -3.97743,-0.27317 -3.97742,-0.273167 -2.94334,-2.63427 c -1.87706,-1.679964 -3.1081,-3.133527 -3.39816,-4.012418 -0.25371,-0.768802 -0.72646,-1.378168 -1.06917,-1.378168 -0.3379,0 -3.085541,0.759658 -6.10588,1.688129 -5.000598,1.537213 -5.915173,1.974608 -10.230525,4.892721 -4.453557,3.011566 -5.169695,3.697515 -11.889159,11.387931 l -7.15015,8.183338 -5.166783,11.271064 c -2.841732,6.19909 -5.220581,11.27107 -5.286333,11.27107 -0.14021,0 0.135621,-16.092996 0.421994,-24.620586 l 0.198384,-5.907502 5.083981,-13.811656 C 68.987531,42.94587 72.993885,34.275092 77.139227,29.026718 c 1.706886,-2.16107 3.317212,-4.106642 3.578503,-4.323494 0.314584,-0.261082 1.606241,-0.167398 3.823491,0.277317 2.537112,0.508869 3.6743,0.957722 4.693402,1.852505 l 1.344983,1.180912 -1.210165,1.378304 c -0.665594,0.758067 -1.210168,1.457978 -1.210168,1.555357 0,0.09738 1.403481,-0.472413 3.118846,-1.266204 1.715366,-0.793792 4.097754,-1.885957 5.294196,-2.427033 1.196442,-0.541077 3.776175,-2.014897 5.732725,-3.275157 3.94505,-2.541081 4.10725,-2.874376 2.69578,-5.539413 -1.20848,-2.281777 -0.82623,-3.30931 2.38167,-6.402065 2.69268,-2.5960285 2.71361,-2.6069267 3.40882,-1.774499 l 0.69949,0.837572 0.39723,-1.044789 c 0.44006,-1.1574308 0.7541,-1.2261549 2.89093,-0.6326324 1.22997,0.341636 1.73768,0.8621134 3.13454,3.2133684 l 1.66683,2.805703 3.59816,-1.807102 3.59816,-1.807102 6.54755,0.0067 6.54756,0.0067 3.26862,1.755103 3.26861,1.755103 1.76178,-1.503245 c 1.42739,-1.217916 2.21086,-1.559054 4.12774,-1.797277 1.30127,-0.161719 4.44452,-1.097381 6.98499,-2.0792504 l 4.61903,-1.7852168 4.28311,2.9120132 c 11.45052,7.785035 10.32316,6.725542 13.84416,13.010685 1.73339,3.094166 3.68678,6.177907 4.34087,6.852758 0.93408,0.963718 1.18926,1.589883 1.18926,2.918177 0,1.20088 0.16741,1.691177 0.57745,1.691177 0.3176,0 1.08725,0.196384 1.71033,0.436408 l 1.13289,0.43641 -1.50912,0.7805 c -0.83001,0.429275 -1.50912,0.959561 -1.50912,1.178412 0,0.218852 0.36219,1.704914 0.80487,3.30236 0.44267,1.597445 0.80587,3.813561 0.8071,4.924695 0.001,1.111139 0.17244,2.654078 0.38045,3.428759 0.20801,0.774682 0.48391,2.132889 0.6131,3.018239 0.12919,0.88535 0.85211,4.0545 1.60649,7.042556 1.27735,5.059518 1.47847,5.529614 2.92702,6.841341 0.85549,0.774681 2.05317,2.087615 2.66151,2.91763 l 1.10608,1.509119 -1.32838,0.0089 c -1.59355,0.01075 -2.79772,0.905589 -3.77872,2.808073 -0.65671,1.273564 -0.71851,2.516551 -0.64507,12.973789 l 0.0812,11.565282 1.43984,2.318614 c 0.79191,1.27524 2.46611,3.26497 3.72046,4.42162 l 2.28062,2.103 -1.92758,0.01 c -3.81267,0.0193 -6.32521,2.21016 -8.17708,7.13015 -1.00078,2.65882 -1.00841,2.76309 -0.43491,5.9422 0.49145,2.72431 0.50229,3.80851 0.0686,6.85779 l -0.51519,3.62188 1.5694,1.62496 c 0.86316,0.89374 1.56938,1.97345 1.56938,2.39937 0,0.42591 0.74121,1.52963 1.64712,2.45269 l 1.64713,1.6783 -1.79075,-0.40979 c -1.6106,-0.36856 -1.92195,-0.31319 -3.09486,0.55032 -1.6892,1.24359 -2.25833,2.39337 -3.21446,6.49396 -0.7695,3.30017 -0.7703,3.42771 -0.0402,6.3619 0.4098,1.64681 0.86845,4.86551 1.01922,7.15265 0.24672,3.74292 0.43762,4.49921 1.91045,7.56866 1.37387,2.86323 1.88698,3.53808 3.19904,4.20744 1.77151,0.90376 1.72607,1.36428 -0.17161,1.73943 -0.7218,0.14269 -1.80614,0.69419 -2.40967,1.22555 l -1.09732,0.96612 0.24159,9.78634 0.24159,9.78633 1.58074,2.90417 c 1.3095,2.40585 1.53546,3.14558 1.31683,4.311 -0.25491,1.35876 -0.20063,1.43757 1.58896,2.30702 1.0191,0.49511 1.85289,1.0293 1.85289,1.18707 0,0.15778 -0.71904,0.40835 -1.59788,0.55683 -1.59437,0.26937 -3.79309,1.63195 -3.47192,2.15161 0.0932,0.15082 0.38772,3.53184 0.65447,7.51337 l 0.485,7.23916 1.53397,2.01216 c 0.84369,1.10668 1.90014,2.86644 2.34767,3.91056 0.60385,1.40884 1.2977,2.19966 2.69061,3.06663 1.03232,0.64253 1.72039,1.26418 1.52906,1.38145 -0.19133,0.11727 -1.36134,0.33924 -2.60003,0.49329 -1.23868,0.15403 -2.47826,0.41981 -2.75461,0.59061 -0.3847,0.23776 -0.11623,1.6938 1.14546,6.21253 0.90639,3.24609 1.64795,6.07702 1.64795,6.29094 0,0.24125 -4.37071,0.38895 -11.50941,0.38895 l -11.5094,0 0.1407,-10.36262 z M 96.833228,45.667612 c 3.283012,-1.461737 3.692042,-1.780089 5.704462,-4.439829 l 2.16787,-2.865182 0.23855,-4.212455 0.23855,-4.212454 -1.86825,0 c -1.5214,0 -3.00999,0.569466 -8.018138,3.067371 l -6.14989,3.06737 -2.365639,4.987206 c -1.301103,2.742963 -2.292857,5.05243 -2.203901,5.132152 0.173672,0.155637 5.907951,0.899375 7.66022,0.993532 0.582766,0.03131 2.65104,-0.651654 4.596166,-1.517711 z"
     id="path8522"
     transform="matrix(-1,0,0,1,230.36954,1.8525371)" />
  <path
     inkscape:connector-curvature="0"
     id="path8666"
     d="m 52.049016,234.6463 c -0.0944,-6.95562 0.0136,-11.02321 0.32862,-12.37186 0.32369,-1.38575 0.33893,-2.08983 0.0491,-2.26895 -0.26768,-0.16543 -0.33106,-1.3352 -0.17459,-3.22237 0.1351,-1.62947 0.34849,-4.50197 0.47421,-6.38333 0.12572,-1.88137 0.58895,-5.49026 1.02939,-8.01975 0.44044,-2.5295 0.69235,-5.09285 0.5598,-5.69634 -0.1331,-0.60599 -0.0503,-1.21514 0.18499,-1.36055 0.81378,-0.50294 0.42019,-1.03452 -0.58008,-0.78346 -0.99673,0.25016 -1.00608,0.22791 -1.00608,-2.39272 0,-1.45488 0.64234,-6.1377 1.42743,-10.40625 1.12488,-6.116 1.40801,-8.614 1.33579,-11.78533 -0.0504,-2.21337 0.0447,-4.66581 0.2114,-5.44986 0.26703,-1.25611 0.18611,-1.48812 -0.68089,-1.95212 -1.4915,-0.79823 -2.38393,-6.84611 -2.59614,-17.59379 l -0.16776,-8.49606 1.19322,-2.3696 c 1.54233,-3.06292 1.55026,-4.38319 0.0317,-5.28023 -2.01522,-1.19042 -2.72618,-4.13555 -3.76619,-15.60122 -0.0803,-0.88535 -0.26529,-2.71575 -0.41108,-4.06755 -0.25416,-2.35658 -0.18832,-2.61066 1.59829,-6.16802 l 1.86337,-3.710188 -2.53477,-2.69566 c -2.39173,-2.543538 -2.58594,-2.899481 -3.44156,-6.307374 -1.20106,-4.783811 -1.144,-7.074055 0.3399,-13.64251 1.68308,-7.450164 2.71572,-9.929506 4.3672,-10.485554 l 1.27179,-0.428207 -1.12754,-1.497288 c -0.62014,-0.823508 -1.51036,-1.602536 -1.97826,-1.731169 -1.00745,-0.276974 -1.68439,-2.193157 -2.36122,-6.683865 l -0.46558,-3.089086 3.54844,-4.511096 c 1.97672,-2.512977 4.54212,-6.403112 5.79185,-8.782651 1.88868,-3.596144 2.21239,-4.514799 2.04719,-5.809882 -0.11103,-0.870523 0.0795,-2.347614 0.43901,-3.402583 l 0.63521,-1.864262 1.73629,1.973161 1.73629,1.973161 3.5647,-0.683345 c 4.37538,-0.838749 4.66637,-0.84058 6.756083,-0.04251 1.47831,0.564572 1.78729,0.916015 2.5965,2.953309 0.90703,2.283538 0.98944,2.358293 6.58532,5.973092 3.4067,2.200642 6.95082,4.135756 8.88626,4.851947 6.38386,2.362307 6.49077,2.422829 7.24872,4.103674 1.13547,2.51802 0.66658,7.901454 -1.18144,13.564306 l -1.47525,4.52058 0.5377,3.729271 0.53771,3.729271 2.27318,-3.42067 c 1.559931,-2.347364 2.477801,-4.241434 2.925301,-6.036477 1.28823,-5.167417 1.45093,-5.655164 1.81205,-5.43198 0.20143,0.124492 1.52187,0.107952 2.9343,-0.03674 2.39503,-0.245375 2.55631,-0.324601 2.39359,-1.175817 -0.32712,-1.711212 0.87432,-2.827981 3.58463,-3.332015 1.39241,-0.258944 2.85117,-0.813242 3.334,-1.266835 0.64534,-0.606263 1.13155,-0.733416 1.95864,-0.512215 1.08219,0.289421 1.02598,0.369251 -3.43432,4.877687 l -4.53452,4.583452 3.97743,-0.27317 3.97742,-0.273167 2.94334,-2.63427 c 1.87706,-1.679964 3.1081,-3.133527 3.39816,-4.012418 0.25371,-0.768802 0.72646,-1.378168 1.06917,-1.378168 0.3379,0 3.08554,0.759658 6.10588,1.688129 5.0006,1.537213 5.91517,1.974608 10.23052,4.892721 4.45356,3.011566 5.1697,3.697515 11.88916,11.387931 l 7.15015,8.183338 5.16678,11.271064 c 2.84174,6.19909 5.22059,11.271078 5.28634,11.271078 0.14021,0 -0.13562,-16.093004 -0.422,-24.620594 L 170.83488,72.824844 165.7509,59.013188 C 159.01138,40.703922 155.00502,32.033144 150.85968,26.78477 c -1.70689,-2.16107 -3.31721,-4.106642 -3.5785,-4.323494 -0.31459,-0.261082 -1.60624,-0.167398 -3.82349,0.277317 -2.53712,0.508869 -3.6743,0.957722 -4.69341,1.852505 l -1.34498,1.180912 1.21017,1.378304 c 0.66559,0.758067 1.21016,1.457978 1.21016,1.555357 0,0.09738 -1.40348,-0.472413 -3.11884,-1.266204 -1.71537,-0.793792 -4.09776,-1.885957 -5.2942,-2.427033 -1.19644,-0.541077 -3.77617,-2.014897 -5.73272,-3.275157 -3.94505,-2.541081 -4.10725,-2.874376 -2.69578,-5.539413 1.20848,-2.281777 0.82623,-3.30931 -2.38167,-6.4020648 -2.69268,-2.5960285 -2.71361,-2.6069267 -3.40882,-1.774499 l -0.69949,0.837572 -0.39723,-1.044789 c -0.44006,-1.1574308 -0.7541,-1.2261549 -2.89093,-0.6326324 -1.22997,0.341636 -1.73768,0.8621134 -3.13454,3.2133682 l -1.66683,2.805703 -3.59816,-1.807102 -3.59816,-1.8071018 -6.547551,0.0067 -6.54756,0.0067 -3.26862,1.7551028 -3.26861,1.755103 -1.76178,-1.503245 c -1.42739,-1.217916 -2.21086,-1.559054 -4.12774,-1.7972768 -1.30127,-0.161719 -4.444523,-1.097381 -6.984993,-2.0792504 l -4.61903,-1.7852168 -4.28311,2.9120132 c -11.45052,7.7850348 -10.32316,6.7255418 -13.84416,13.0106848 -1.73339,3.094166 -3.68678,6.177907 -4.34087,6.852758 -0.93408,0.963718 -1.18926,1.589883 -1.18926,2.918177 0,1.20088 -0.16741,1.691177 -0.57745,1.691177 -0.3176,0 -1.08725,0.196384 -1.71033,0.436408 l -1.13289,0.43641 1.50912,0.7805 c 0.83001,0.429275 1.50912,0.959561 1.50912,1.178412 0,0.218852 -0.36219,1.704914 -0.80487,3.30236 -0.44267,1.597445 -0.80587,3.813561 -0.8071,4.924695 -0.001,1.111139 -0.17244,2.654078 -0.38045,3.428759 -0.20801,0.774682 -0.48391,2.132889 -0.6131,3.018239 -0.12919,0.88535 -0.85211,4.0545 -1.60649,7.042556 -1.27735,5.059518 -1.47847,5.529614 -2.92702,6.841341 -0.85549,0.774681 -2.05317,2.087615 -2.66151,2.91763 l -1.10608,1.509119 1.32838,0.0089 c 1.59355,0.01075 2.79772,0.905589 3.77872,2.808073 0.65671,1.273564 0.71851,2.516551 0.64507,12.973789 l -0.0812,11.565282 -1.43984,2.318614 c -0.79191,1.275238 -2.46611,3.264978 -3.72046,4.421628 l -2.28062,2.103 1.92758,0.01 c 3.81267,0.0193 6.32521,2.21016 8.17708,7.13015 1.00078,2.65882 1.00841,2.76309 0.43491,5.9422 -0.49145,2.72431 -0.50229,3.80851 -0.0686,6.85779 l 0.51519,3.62188 -1.5694,1.62496 c -0.86316,0.89374 -1.56938,1.97345 -1.56938,2.39937 0,0.42591 -0.74121,1.52963 -1.64712,2.45269 l -1.64713,1.6783 1.79075,-0.40979 c 1.6106,-0.36856 1.92195,-0.31319 3.09486,0.55032 1.6892,1.24359 2.25833,2.39337 3.21446,6.49396 0.7695,3.30017 0.7703,3.42771 0.0402,6.3619 -0.4098,1.64681 -0.86845,4.86551 -1.01922,7.15265 -0.24672,3.74292 -0.43762,4.49921 -1.91045,7.56866 -1.37387,2.86323 -1.88698,3.53808 -3.19904,4.20744 -1.77151,0.90376 -1.72607,1.36428 0.17161,1.73943 0.7218,0.14269 1.80614,0.69419 2.40967,1.22555 l 1.09732,0.96612 -0.24159,9.78634 -0.24159,9.78633 -1.58074,2.90417 c -1.3095,2.40585 -1.53546,3.14558 -1.31683,4.311 0.25491,1.35876 0.20063,1.43757 -1.58896,2.30702 -1.0191,0.49511 -1.85289,1.0293 -1.85289,1.18707 0,0.15778 0.71904,0.40835 1.59788,0.55683 1.59437,0.26937 3.79309,1.63195 3.47192,2.15161 -0.0932,0.15082 -0.38772,3.53184 -0.65447,7.51337 l -0.485,7.23916 -1.53397,2.01216 c -0.84369,1.10668 -1.90014,2.86644 -2.34767,3.91056 -0.60385,1.40884 -1.2977,2.19966 -2.69061,3.06663 -1.03232,0.64253 -1.72039,1.26418 -1.52906,1.38145 0.19133,0.11727 1.36134,0.33924 2.60003,0.49329 1.23868,0.15403 2.47826,0.41981 2.75461,0.59061 0.3847,0.23776 0.11623,1.6938 -1.14546,6.21253 -0.90639,3.24609 -1.64795,6.07702 -1.64795,6.29094 0,0.24125 4.37071,0.38895 11.50941,0.38895 l 11.5094,0 -0.1407,-10.36262 z M 131.16568,43.425664 c -3.28301,-1.461737 -3.69204,-1.780089 -5.70446,-4.439829 l -2.16787,-2.865182 -0.23855,-4.212455 -0.23855,-4.212454 1.86825,0 c 1.5214,0 3.00999,0.569466 8.01814,3.067371 l 6.14989,3.06737 2.36563,4.987206 c 1.30111,2.742963 2.29286,5.05243 2.20391,5.132152 -0.17368,0.155637 -5.90796,0.899375 -7.66022,0.993532 -0.58277,0.03131 -2.65104,-0.651654 -4.59617,-1.517711 z"
     style="display:inline;fill:url(#linearGradient8668);fill-opacity:1;stroke:#000000;stroke-width:0.1;stroke-miterlimit:4;stroke-dasharray:none;stroke-opacity:1" />
  <g
     id="g7"
     transform="matrix(0.69426132,0,0,0.69426132,117.9341,138.05847)">
    <g
       id="g8">
      <path
         d="M 155.932,155.932 V 0 H 0 v 155.932 z"
         id="path9"
         style="fill:#000000;stroke:none" />
      <path
         d="M 150.83,150.83 V 5.1011 H 5.1011 V 150.83 Z"
         id="path10"
         style="fill:#ff9900;stroke:none" />
    </g>
    <g
       id="g11">
      <path
         d="M 140.823,111.783 44.3677,14.0771 15.1084,44.1489 111.564,141.854 Z"
         id="path12"
         style="fill:#000000;stroke:none" />
      <path
         d="M 111.783,15.1084 14.0771,111.564 44.1489,140.823 141.855,44.3677 Z"
         id="path13"
         style="fill:#000000;stroke:none" />
    </g>
  </g>
</svg>
