<?xml version="1.0" encoding="UTF-8" standalone="no"?>
<svg viewBox="0 0 293.75226 230.64578" xmlns="http://www.w3.org/2000/svg" xmlns:xlink="http://www.w3.org/1999/xlink">
<defs>
<clipPath id="clipPath15141">
<path d="m306.11502,256.03052c-1.52137.01548-3.03774.05437-4.5625.09375-48.79242,1.26003-99.97681,9.62322-140.46876,41.53125-19.83187,16.16397-27.41835,55.06196-21.96874,81.40624 6.08799,30.41098 14.68893,49.1684 41.21875,62.3125 51.46109,25.81502 111.41673,30.97879 167.99999,23.87501 40.06915-5.4652 75.47218-13.47439 106.6875-39.84375 19.03327-16.52993 19.61338-50.68176 16.46876-77.53124s-7.97107-46.90591-32.46875-59.68751c-40.28096-21.64409-85.74369-32.63601-132.90625-32.15625zm-5.375,106.31249c29.2552.18982 58.75144,1.88126 87.25,8.93751 21.22852,6.78364 45.41088,11.68394 60.28124,29.78125 9.76372,10.60994.51752,25.43313-10.06249,32.3125-46.0193,25.37453-104.52884,32.86153-156.38485,30.20009-39.1946-3.63253-69.65116-9.4315-97.72981-25.07903s-29.20032-30.89554-17.72909-41.21482c38.79667-27.70268 87.90184-34.04996 134.375-34.9375z" fill-rule="evenodd"/>
</clipPath>
<clipPath id="clipPath15149">
<path d="m306.11503,233.50504c-1.52137.01782-3.03775.0626-4.5625.10796-48.79242,1.45107-99.97681,11.08229-140.46876,47.82822-19.83187,18.61475-27.41835,63.41047-21.96875,93.74907 6.088,35.0219 14.68894,56.62332 41.21875,71.76034 51.4611,29.72909 111.41674,35.67579 168,27.49494 40.06915-6.29384 75.47218-15.51739 106.6875-45.88487 19.03327-19.0362 19.61338-58.36614 16.46876-89.28654s-7.97107-54.0178-32.46875-68.73734c-40.28096-24.92577-85.74369-37.58429-132.90625-37.03178zm-5.375,122.4316c29.2552.2186 58.75144,2.1665 87.24999,10.29261 21.22853,7.81218 45.41089,13.45547 60.28125,34.29669 9.76372,12.21863.51752,29.28931-10.06249,37.21173-46.0193,29.22182-104.52884,37.844-156.38485,34.77904-39.1946-4.1833-69.65116-10.86151-97.72981-28.88152s-29.20032-35.57993-17.72909-47.46382c38.79667-31.90297 87.90184-39.21263 134.375-40.23473z" fill-rule="evenodd"/>
</clipPath>
<clipPath id="clipPath15157">
<path d="m247.51374,273.06426c-1.26099.8513-2.50491,1.71938-3.75555,2.5925-40.02082,27.9396-78.12329,63.12464-94.32845,112.06453-7.64133,24.41695 7.4637,61.05636 26.52877,80.03641 21.83883,22.02174 39.35265,32.93426 68.734,29.2826 57.16803-6.81727 110.04407-35.54824 153.34569-72.65752 30.42427-26.64149 55.55294-52.83446 67.06936-92.04047 6.77326-24.28223-11.5628-53.10016-28.98287-73.77199s-32.50008-34.74834-59.98593-31.91404c-45.54021,4.13667-89.53426,20.01764-128.62502,46.40798zm54.10069,91.67525c24.51682-15.96335 50.06228-30.80648 77.73161-40.62312 21.45258-6.0378 44.33215-15.27494 66.71376-8.36816 13.99425,3.47303 14.44735,20.93767 9.40981,32.50857-24.41793,46.53393-69.11576,85.02452-113.85403,111.38009-34.70801,18.56788-63.31836,30.51266-95.37172,32.92884s-41.39211-9.68951-37.50653-24.62199c17.10797-44.49649 54.58633-76.85354 92.8771-103.20423z" fill-rule="evenodd"/>
</clipPath>
<filter id="filter15107">
<feGaussianBlur stdDeviation="5.4694"/>
</filter>
<filter id="filter15135">
<feGaussianBlur stdDeviation="7.3846"/>
</filter>
<filter height="2.13884" id="filter7603" width="1.18657" x="-.09328" y="-.56942">
<feGaussianBlur stdDeviation="10.62771"/>
</filter>
<linearGradient id="linearGradient16162">
<stop offset="0" stop-color="#fff"/>
<stop offset="1" stop-color="#fff" stop-opacity="0"/>
</linearGradient>
<linearGradient gradientTransform="matrix(.61465,-.40591,.40591,.61465,-432.1209,157.33107)" gradientUnits="userSpaceOnUse" id="linearGradient3259" spreadMethod="reflect" x1="507.36096" x2="619.67352">
<stop offset="0" stop-color="#4d4d4d"/>
<stop offset="1" stop-color="#fff"/>
</linearGradient>
<linearGradient gradientTransform="matrix(.61465,-.40591,.40591,.61465,-179.54285,28.18328)" gradientUnits="userSpaceOnUse" id="linearGradient3261" spreadMethod="reflect" x1="153.40488" x2="236.91357">
<stop offset="0" stop-color="#333"/>
<stop offset="1" stop-color="#fff"/>
</linearGradient>
<linearGradient gradientUnits="userSpaceOnUse" id="linearGradient3266" x1="106.34436" x2="505.04034" y1="268.07428" y2="267.28842">
<stop offset="0" stop-color="#fff" stop-opacity="0"/>
<stop offset=".5" stop-color="#191919"/>
<stop offset="1" stop-color="#fff" stop-opacity="0"/>
</linearGradient>
<linearGradient gradientTransform="matrix(.83446,-.55107,.55107,.83446,-491.92154,403.44241)" gradientUnits="userSpaceOnUse" id="linearGradient3268" spreadMethod="reflect" x1="584.578" x2="678.37378" y1="344.36328" y2="345.0015">
<stop offset="0" stop-color="#545454"/>
<stop offset=".5" stop-color="#9a9a9a"/>
<stop offset="1" stop-color="#fff"/>
</linearGradient>
<linearGradient gradientTransform="matrix(.83446,-.55107,.55107,.83446,-149.01758,228.10932)" gradientUnits="userSpaceOnUse" id="linearGradient3270" spreadMethod="reflect" x1="262.62756" x2="389.03049" y1="362.08588" y2="356.59357">
<stop offset="0" stop-color="#666"/>
<stop offset="1" stop-color="#fff"/>
</linearGradient>
<linearGradient gradientUnits="userSpaceOnUse" id="linearGradient3272" x1="385.62833" x2="102.41045" xlink:href="#linearGradient16162" y1="342.90512" y2="337.21155"/>
<linearGradient gradientUnits="userSpaceOnUse" id="linearGradient3274" x1="330.20947" x2="128.97592" xlink:href="#linearGradient16162" y1="260.00836" y2="280.52045"/>
<radialGradient cx="192.94724" cy="366.5531" gradientTransform="matrix(5.2732595e-2,1.16829,-1.01869,4.5980501e-2,556.17654,124.28781)" gradientUnits="userSpaceOnUse" id="radialGradient3276" r="53.85435" xlink:href="#linearGradient16162"/>
<radialGradient cx="195.04448" cy="365.55392" gradientTransform="matrix(.53061,1.10204,-.91939,.44267,427.63776,-11.25464)" gradientUnits="userSpaceOnUse" id="radialGradient3278" r="25.69134" xlink:href="#linearGradient16162"/>
</defs>
<g transform="translate(2.23386,-21.66127)">
<path d="m461.9381,253.53589a136.71501,22.397 0 1,1 -273.43003,0 136.71501,22.397 0 1,1 273.43003,0z" fill="url(#linearGradient3266)" fill-rule="evenodd" filter="url(#filter7603)" transform="matrix(.78157,0,0,.6875,-131.96609,44.28959)"/>
<path d="m160.68036,136.36464c-93.29207,63.81271-117.47355,45.21174-80.87588,63.15051-2.98268,11.07869 11.60939,26.5761 22.41385,25.10291 30.20332.21732 58.99066-13.91221 84.96815-27.86119 33.49878-19.77317 62.80838-46.56151 81.27811-81.15725 3.82181-8.59641-.47287-27.66187-10.88348-30.15226-27.58004-39.41209-3.09646-13.23369-96.90075,50.91728z" fill="url(#linearGradient3259)" fill-rule="evenodd" stroke="url(#linearGradient3261)" stroke-width=".73659"/>
<path clip-path="url(#clipPath15157)" d="m247.51374,273.06426c-1.26099.8513-2.50491,1.71938-3.75555,2.5925-40.02082,27.9396-78.12329,63.12464-94.32845,112.06453-7.64133,24.41695 7.4637,61.05636 26.52877,80.03641 21.83883,22.02174 39.35265,32.93426 68.734,29.2826 57.16803-6.81727 110.04407-35.54824 153.34569-72.65752 30.42427-26.64149 55.55294-52.83446 67.06936-92.04047 6.77326-24.28223-11.5628-53.10016-28.98287-73.77199s-32.50008-34.74834-59.98593-31.91404c-45.54021,4.13667-89.53426,20.01764-128.62502,46.40798zm54.10069,91.67525c24.51682-15.96335 50.06228-30.80648 77.73161-40.62312 21.45258-6.0378 44.33215-15.27494 66.71376-8.36816 13.99425,3.47303 14.44735,20.93767 9.40981,32.50857-24.41793,46.53393-69.11576,85.02452-113.85403,111.38009-34.70801,18.56788-63.31836,30.51266-95.37172,32.92884s-41.39211-9.68951-37.50653-24.62199c17.10797-44.49649 54.58633-76.85354 92.8771-103.20423z" fill="url(#linearGradient3268)" fill-rule="evenodd" stroke="url(#linearGradient3270)" transform="matrix(.73659,0,0,.73659,-69.25888,-139.31891)"/>
<path clip-path="url(#clipPath15149)" d="m290.22035,336.625c-46.4628.60787-94.63592,11.37004-134.29466,43.12506-3.88185,3.96703-10.06896,8.70188-6.79726,15.9934 .47201,5.68875 1.09093,19.89925 4.35314,14.23222 4.58786-25.40678 34.64389-30.07495 51.87311-38.30896 54.54745-22.20038 112.46668-21.00439 168.70777-11.06155 29.49417,5.90053 60.94443,22.1154 84.38429,44.78176-4.0903-8.20759 9.50188-92.9311-2.81479-106.12047-8.11365,40.15564-1.05794,70.85358-38.17365,58.76695-35.20449-13.42695-90.53533-21.21069-127.23795-21.40841z" fill="url(#linearGradient3272)" fill-rule="evenodd" filter="url(#filter15135)" opacity=".77099" transform="matrix(.61465,-.40591,.35247,.53373,-157.4008,61.4444)"/>
<path clip-path="url(#clipPath15141)" d="m306.11434,260.11044c-50.19633.56221-102.40584,3.99899-144.16456,42.53686-9.4224,8.17123-27.11146,51.6049-19.45431,73.36541 7.06819-16.35516.66519-39.04158 28.83978-63.0846 27.55347-23.51298 112.95059-46.98629 166.99689-43.989 39.64524,5.97615 79.80719,14.71056 115.05143,35.29029-13.08905-13.45923-33.42369-22.06558-49.78456-29.49786-39.01509-14.95119-63.56601-15.02497-97.48467-14.6211z" fill="url(#linearGradient3274)" fill-rule="evenodd" filter="url(#filter15107)" opacity=".71756" transform="matrix(.61465,-.40591,.40591,.61465,-179.02304,28.70307)"/>
<path d="m204.48212,421.0892-14.69765-50.99452-47.8517,23.83467 43.95684-29.73647-37.4551-38.14435 41.86447,32.61637 24.70317-47.40917-18.08318,49.89449 52.72251,8.84387-53.04049-1.77988 7.88113,52.87499z" fill="url(#radialGradient3276)" fill-rule="evenodd" transform="matrix(.4632,0,0,.52211,173.70037,-104.95247)"/>
<path d="m219.16289,367.60925a25.69134,26.21566 0 1,1 -51.38269,0 25.69134,26.21566 0 1,1 51.38269,0z" fill="url(#radialGradient3278)" fill-rule="evenodd" transform="matrix(.4632,0,0,.52211,173.70037,-104.95247)"/>
<path d="m204.48212,421.0892-14.69765-50.99452-47.8517,23.83467 43.95684-29.73647-37.4551-38.14435 41.86447,32.61637 24.70317-47.40917-18.08318,49.89449 52.72251,8.84387-53.04049-1.77988 7.88113,52.87499z" fill="url(#radialGradient3276)" fill-rule="evenodd" transform="matrix(.4632,0,0,.52211,13.71178,-117.7123)"/>
<path d="m219.16289,367.60925a25.69134,26.21566 0 1,1 -51.38269,0 25.69134,26.21566 0 1,1 51.38269,0z" fill="url(#radialGradient3278)" fill-rule="evenodd" transform="matrix(.4632,0,0,.52211,13.71178,-117.7123)"/>
</g>
</svg>
