<?xml version="1.0" encoding="UTF-8" standalone="no"?>
<svg
   xmlns:dc="http://purl.org/dc/elements/1.1/"
   xmlns:cc="http://creativecommons.org/ns#"
   xmlns:rdf="http://www.w3.org/1999/02/22-rdf-syntax-ns#"
   xmlns:svg="http://www.w3.org/2000/svg"
   xmlns="http://www.w3.org/2000/svg"
   xmlns:sodipodi="http://sodipodi.sourceforge.net/DTD/sodipodi-0.dtd"
   xmlns:inkscape="http://www.inkscape.org/namespaces/inkscape"
   version="1.1"
   id="svg80802"
   sodipodi:docname="tags.svg"
   inkscape:version="0.92.2 2405546, 2018-03-11">
  <metadata
     id="metadata80808">
    <rdf:RDF>
      <cc:Work
         rdf:about="">
        <dc:format>image/svg+xml</dc:format>
        <dc:type
           rdf:resource="http://purl.org/dc/dcmitype/StillImage" />
        <dc:title></dc:title>
      </cc:Work>
    </rdf:RDF>
  </metadata>
  <defs
     id="defs80806" />
  <sodipodi:namedview
     pagecolor="#ffffff"
     bordercolor="#666666"
     borderopacity="1"
     objecttolerance="10"
     gridtolerance="10"
     guidetolerance="10"
     inkscape:pageopacity="0"
     inkscape:pageshadow="2"
     inkscape:window-width="640"
     inkscape:window-height="480"
     id="namedview80804"
     showgrid="false"
     inkscape:current-layer="svg80802" />
  <path
     style="fill:#000000"
     d="M 2,0 V 1 H 1 0 V 2 H 1 V 3 H 0 V 4 5 6 H 1 V 7 H 0 V 8 H 1 2 V 9 H 3 V 8 H 4 V 9 H 5 6 V 8 H 7 V 9 H 8 9 V 8 7 6 H 8 V 5 H 9 V 4 H 8 V 3 H 9 V 2 1 0 H 8 7 V 1 H 6 5 4 3 V 0 Z M 2,2 H 3 4 5 6 7 V 3 4 5 6 7 H 6 5 4 3 2 V 6 5 4 3 Z M 3,4 V 5 6 H 4 V 5 H 5 V 4 H 4 Z M 5,5 V 6 H 6 V 5 Z"
     id="tag0"
     inkscape:connector-curvature="0" />
  <path
     style="fill:#000000"
     d="M 12 0 L 12 1 L 11 1 L 10 1 L 10 2 L 11 2 L 11 3 L 10 3 L 10 4 L 11 4 L 11 5 L 11 6 L 10 6 L 10 7 L 11 7 L 11 8 L 12 8 L 12 9 L 13 9 L 13 8 L 14 8 L 15 8 L 16 8 L 16 9 L 17 9 L 18 9 L 18 8 L 18 7 L 19 7 L 19 6 L 19 5 L 18 5 L 18 4 L 19 4 L 19 3 L 19 2 L 19 1 L 18 1 L 18 0 L 17 0 L 17 1 L 16 1 L 15 1 L 14 1 L 13 1 L 13 0 L 12 0 z M 11 8 L 10 8 L 10 9 L 11 9 L 11 8 z M 12 2 L 13 2 L 14 2 L 15 2 L 16 2 L 17 2 L 17 3 L 17 4 L 17 5 L 17 6 L 17 7 L 16 7 L 15 7 L 14 7 L 13 7 L 12 7 L 12 6 L 12 5 L 12 4 L 12 3 L 12 2 z M 13 4 L 13 5 L 14 5 L 14 4 L 13 4 z M 14 5 L 14 6 L 15 6 L 15 5 L 14 5 z "
     id="rect72091" />
  <path
     style="fill:#000000"
     d="M 22 0 L 22 1 L 21 1 L 21 2 L 21 3 L 20 3 L 20 4 L 20 5 L 21 5 L 21 6 L 20 6 L 20 7 L 20 8 L 20 9 L 21 9 L 21 8 L 22 8 L 22 9 L 23 9 L 23 8 L 24 8 L 24 9 L 25 9 L 25 8 L 26 8 L 26 9 L 27 9 L 28 9 L 29 9 L 29 8 L 28 8 L 28 7 L 28 6 L 28 5 L 28 4 L 28 3 L 28 2 L 28 1 L 28 0 L 27 0 L 27 1 L 26 1 L 25 1 L 24 1 L 23 1 L 23 0 L 22 0 z M 22 2 L 23 2 L 24 2 L 25 2 L 26 2 L 27 2 L 27 3 L 27 4 L 27 5 L 27 6 L 27 7 L 26 7 L 25 7 L 24 7 L 23 7 L 22 7 L 22 6 L 22 5 L 22 4 L 22 3 L 22 2 z M 25 3 L 25 4 L 24 4 L 24 5 L 25 5 L 26 5 L 26 4 L 26 3 L 25 3 z M 24 5 L 23 5 L 23 6 L 24 6 L 24 5 z "
     id="rect72172" />
  <path
     style="fill:#000000"
     d="M 32 0 L 32 1 L 31 1 L 31 2 L 31 3 L 30 3 L 30 4 L 31 4 L 31 5 L 30 5 L 30 6 L 30 7 L 31 7 L 31 8 L 32 8 L 32 9 L 33 9 L 33 8 L 34 8 L 35 8 L 35 9 L 36 9 L 37 9 L 38 9 L 38 8 L 39 8 L 39 7 L 39 6 L 38 6 L 38 5 L 39 5 L 39 4 L 38 4 L 38 3 L 38 2 L 38 1 L 37 1 L 36 1 L 35 1 L 34 1 L 33 1 L 33 0 L 32 0 z M 38 1 L 39 1 L 39 0 L 38 0 L 38 1 z M 32 2 L 33 2 L 34 2 L 35 2 L 36 2 L 37 2 L 37 3 L 37 4 L 37 5 L 37 6 L 37 7 L 36 7 L 35 7 L 34 7 L 33 7 L 32 7 L 32 6 L 32 5 L 32 4 L 32 3 L 32 2 z M 33 3 L 33 4 L 34 4 L 35 4 L 35 5 L 36 5 L 36 4 L 36 3 L 35 3 L 34 3 L 33 3 z "
     id="rect72253" />
  <path
     style="fill:#000000"
     d="M 42 0 L 42 1 L 41 1 L 40 1 L 40 2 L 40 3 L 41 3 L 41 4 L 40 4 L 40 5 L 40 6 L 40 7 L 40 8 L 41 8 L 41 9 L 42 9 L 42 8 L 43 8 L 44 8 L 44 9 L 45 9 L 46 9 L 47 9 L 48 9 L 49 9 L 49 8 L 48 8 L 48 7 L 49 7 L 49 6 L 49 5 L 48 5 L 48 4 L 49 4 L 49 3 L 48 3 L 48 2 L 48 1 L 47 1 L 46 1 L 45 1 L 44 1 L 43 1 L 43 0 L 42 0 z M 42 2 L 43 2 L 44 2 L 45 2 L 46 2 L 47 2 L 47 3 L 47 4 L 47 5 L 47 6 L 47 7 L 46 7 L 45 7 L 44 7 L 43 7 L 42 7 L 42 6 L 42 5 L 42 4 L 42 3 L 42 2 z M 43 3 L 43 4 L 43 5 L 44 5 L 44 6 L 45 6 L 46 6 L 46 5 L 45 5 L 45 4 L 46 4 L 46 3 L 45 3 L 44 3 L 43 3 z "
     id="rect72334" />
  <path
     style="fill:#000000"
     d="M 52 0 L 52 1 L 51 1 L 51 2 L 50 2 L 50 3 L 51 3 L 51 4 L 51 5 L 51 6 L 51 7 L 50 7 L 50 8 L 50 9 L 51 9 L 52 9 L 52 8 L 53 8 L 54 8 L 55 8 L 56 8 L 57 8 L 58 8 L 58 9 L 59 9 L 59 8 L 59 7 L 58 7 L 58 6 L 58 5 L 58 4 L 58 3 L 59 3 L 59 2 L 58 2 L 58 1 L 57 1 L 56 1 L 55 1 L 54 1 L 53 1 L 53 0 L 52 0 z M 58 1 L 59 1 L 59 0 L 58 0 L 58 1 z M 52 2 L 53 2 L 54 2 L 55 2 L 56 2 L 57 2 L 57 3 L 57 4 L 57 5 L 57 6 L 57 7 L 56 7 L 55 7 L 54 7 L 53 7 L 52 7 L 52 6 L 52 5 L 52 4 L 52 3 L 52 2 z M 53 3 L 53 4 L 53 5 L 53 6 L 54 6 L 54 5 L 54 4 L 54 3 L 53 3 z M 55 3 L 55 4 L 56 4 L 56 3 L 55 3 z M 55 5 L 55 6 L 56 6 L 56 5 L 55 5 z "
     id="rect72429" />
  <path
     style="fill:#000000"
     d="M 62 0 L 62 1 L 61 1 L 61 2 L 60 2 L 60 3 L 61 3 L 61 4 L 60 4 L 60 5 L 61 5 L 61 6 L 61 7 L 61 8 L 61 9 L 62 9 L 62 8 L 63 8 L 64 8 L 64 9 L 65 9 L 65 8 L 66 8 L 67 8 L 68 8 L 68 7 L 68 6 L 69 6 L 69 5 L 69 4 L 68 4 L 68 3 L 69 3 L 69 2 L 68 2 L 68 1 L 67 1 L 66 1 L 65 1 L 64 1 L 63 1 L 63 0 L 62 0 z M 62 2 L 63 2 L 64 2 L 65 2 L 66 2 L 67 2 L 67 3 L 67 4 L 67 5 L 67 6 L 67 7 L 66 7 L 65 7 L 64 7 L 63 7 L 62 7 L 62 6 L 62 5 L 62 4 L 62 3 L 62 2 z M 63 3 L 63 4 L 64 4 L 64 3 L 63 3 z M 64 4 L 64 5 L 65 5 L 65 4 L 64 4 z M 65 4 L 66 4 L 66 3 L 65 3 L 65 4 z M 65 5 L 65 6 L 66 6 L 66 5 L 65 5 z "
     id="rect72506" />
  <path
     style="fill:#000000"
     d="M 72 0 L 72 1 L 71 1 L 70 1 L 70 2 L 71 2 L 71 3 L 71 4 L 71 5 L 70 5 L 70 6 L 71 6 L 71 7 L 70 7 L 70 8 L 71 8 L 71 9 L 72 9 L 72 8 L 73 8 L 74 8 L 75 8 L 75 9 L 76 9 L 76 8 L 77 8 L 78 8 L 78 9 L 79 9 L 79 8 L 79 7 L 79 6 L 79 5 L 78 5 L 78 4 L 79 4 L 79 3 L 79 2 L 78 2 L 78 1 L 77 1 L 76 1 L 75 1 L 74 1 L 73 1 L 73 0 L 72 0 z M 78 1 L 79 1 L 79 0 L 78 0 L 78 1 z M 72 2 L 73 2 L 74 2 L 75 2 L 76 2 L 77 2 L 77 3 L 77 4 L 77 5 L 77 6 L 77 7 L 76 7 L 75 7 L 74 7 L 73 7 L 72 7 L 72 6 L 72 5 L 72 4 L 72 3 L 72 2 z M 74 3 L 74 4 L 75 4 L 75 3 L 74 3 z M 75 4 L 75 5 L 76 5 L 76 4 L 75 4 z M 75 5 L 74 5 L 73 5 L 73 6 L 74 6 L 75 6 L 75 5 z "
     id="rect72579" />
  <path
     style="fill:#000000"
     d="M 82 0 L 82 1 L 81 1 L 81 2 L 81 3 L 81 4 L 80 4 L 80 5 L 80 6 L 81 6 L 81 7 L 81 8 L 80 8 L 80 9 L 81 9 L 82 9 L 82 8 L 83 8 L 84 8 L 84 9 L 85 9 L 86 9 L 86 8 L 87 8 L 88 8 L 88 7 L 89 7 L 89 6 L 88 6 L 88 5 L 88 4 L 88 3 L 88 2 L 89 2 L 89 1 L 88 1 L 87 1 L 86 1 L 85 1 L 84 1 L 83 1 L 83 0 L 82 0 z M 82 2 L 83 2 L 84 2 L 85 2 L 86 2 L 87 2 L 87 3 L 87 4 L 87 5 L 87 6 L 87 7 L 86 7 L 85 7 L 84 7 L 83 7 L 82 7 L 82 6 L 82 5 L 82 4 L 82 3 L 82 2 z M 84 3 L 84 4 L 83 4 L 83 5 L 83 6 L 84 6 L 84 5 L 85 5 L 86 5 L 86 4 L 85 4 L 85 3 L 84 3 z "
     id="rect72662" />
  <path
     style="fill:#000000"
     d="M 92 0 L 92 1 L 91 1 L 91 2 L 91 3 L 91 4 L 91 5 L 91 6 L 90 6 L 90 7 L 90 8 L 90 9 L 91 9 L 91 8 L 92 8 L 93 8 L 94 8 L 95 8 L 96 8 L 96 9 L 97 9 L 97 8 L 98 8 L 98 9 L 99 9 L 99 8 L 99 7 L 98 7 L 98 6 L 99 6 L 99 5 L 99 4 L 98 4 L 98 3 L 98 2 L 99 2 L 99 1 L 99 0 L 98 0 L 98 1 L 97 1 L 96 1 L 95 1 L 94 1 L 93 1 L 93 0 L 92 0 z M 92 2 L 93 2 L 94 2 L 95 2 L 96 2 L 97 2 L 97 3 L 97 4 L 97 5 L 97 6 L 97 7 L 96 7 L 95 7 L 94 7 L 93 7 L 92 7 L 92 6 L 92 5 L 92 4 L 92 3 L 92 2 z M 93 4 L 93 5 L 94 5 L 94 4 L 93 4 z M 94 5 L 94 6 L 95 6 L 96 6 L 96 5 L 95 5 L 94 5 z "
     id="rect72739" />
  <path
     style="fill:#000000"
     d="M 2 10 L 2 11 L 1 11 L 0 11 L 0 12 L 0 13 L 0 14 L 1 14 L 1 15 L 1 16 L 0 16 L 0 17 L 1 17 L 1 18 L 2 18 L 3 18 L 4 18 L 4 19 L 5 19 L 5 18 L 6 18 L 6 19 L 7 19 L 7 18 L 8 18 L 8 17 L 8 16 L 8 15 L 9 15 L 9 14 L 9 13 L 8 13 L 8 12 L 9 12 L 9 11 L 8 11 L 7 11 L 6 11 L 5 11 L 4 11 L 3 11 L 3 10 L 2 10 z M 2 12 L 3 12 L 4 12 L 5 12 L 6 12 L 7 12 L 7 13 L 7 14 L 7 15 L 7 16 L 7 17 L 6 17 L 5 17 L 4 17 L 3 17 L 2 17 L 2 16 L 2 15 L 2 14 L 2 13 L 2 12 z M 4 14 L 4 15 L 3 15 L 3 16 L 4 16 L 5 16 L 6 16 L 6 15 L 5 15 L 5 14 L 4 14 z "
     id="rect72816" />
  <path
     style="fill:#000000"
     d="M 13 10 L 13 11 L 12 11 L 11 11 L 10 11 L 10 12 L 10 13 L 10 14 L 10 15 L 11 15 L 11 16 L 10 16 L 10 17 L 10 18 L 11 18 L 12 18 L 13 18 L 14 18 L 15 18 L 15 19 L 16 19 L 17 19 L 17 18 L 18 18 L 18 17 L 19 17 L 19 16 L 18 16 L 18 15 L 18 14 L 18 13 L 19 13 L 19 12 L 19 11 L 19 10 L 18 10 L 17 10 L 16 10 L 15 10 L 14 10 L 13 10 z M 18 18 L 18 19 L 19 19 L 19 18 L 18 18 z M 12 12 L 13 12 L 14 12 L 15 12 L 16 12 L 17 12 L 17 13 L 17 14 L 17 15 L 17 16 L 17 17 L 16 17 L 15 17 L 14 17 L 13 17 L 12 17 L 12 16 L 12 15 L 12 14 L 12 13 L 12 12 z M 13 13 L 13 14 L 14 14 L 15 14 L 15 15 L 15 16 L 16 16 L 16 15 L 16 14 L 16 13 L 15 13 L 14 13 L 13 13 z "
     id="rect72893" />
  <path
     style="fill:#000000"
     d="M 23 10 L 23 11 L 22 11 L 21 11 L 21 12 L 20 12 L 20 13 L 20 14 L 21 14 L 21 15 L 20 15 L 20 16 L 20 17 L 21 17 L 21 18 L 22 18 L 23 18 L 24 18 L 24 19 L 25 19 L 26 19 L 27 19 L 27 18 L 28 18 L 29 18 L 29 17 L 28 17 L 28 16 L 29 16 L 29 15 L 29 14 L 28 14 L 28 13 L 29 13 L 29 12 L 29 11 L 28 11 L 28 10 L 27 10 L 26 10 L 25 10 L 24 10 L 23 10 z M 21 18 L 20 18 L 20 19 L 21 19 L 21 18 z M 22 12 L 23 12 L 24 12 L 25 12 L 26 12 L 27 12 L 27 13 L 27 14 L 27 15 L 27 16 L 27 17 L 26 17 L 25 17 L 24 17 L 23 17 L 22 17 L 22 16 L 22 15 L 22 14 L 22 13 L 22 12 z M 23 13 L 23 14 L 23 15 L 24 15 L 24 16 L 25 16 L 25 15 L 26 15 L 26 14 L 26 13 L 25 13 L 24 13 L 23 13 z "
     id="rect72988" />
  <path
     style="fill:#000000"
     d="M 33 10 L 33 11 L 32 11 L 31 11 L 30 11 L 30 12 L 31 12 L 31 13 L 30 13 L 30 14 L 31 14 L 31 15 L 31 16 L 31 17 L 30 17 L 30 18 L 31 18 L 32 18 L 33 18 L 34 18 L 34 19 L 35 19 L 35 18 L 36 18 L 37 18 L 37 19 L 38 19 L 38 18 L 39 18 L 39 17 L 39 16 L 38 16 L 38 15 L 38 14 L 38 13 L 38 12 L 38 11 L 39 11 L 39 10 L 38 10 L 37 10 L 36 10 L 35 10 L 34 10 L 33 10 z M 32 12 L 33 12 L 34 12 L 35 12 L 36 12 L 37 12 L 37 13 L 37 14 L 37 15 L 37 16 L 37 17 L 36 17 L 35 17 L 34 17 L 33 17 L 32 17 L 32 16 L 32 15 L 32 14 L 32 13 L 32 12 z M 33 13 L 33 14 L 34 14 L 34 13 L 33 13 z M 34 14 L 34 15 L 35 15 L 35 14 L 34 14 z M 35 14 L 36 14 L 36 13 L 35 13 L 35 14 z "
     id="rect73087" />
  <path
     style="fill:#000000"
     d="M 43 10 L 43 11 L 42 11 L 41 11 L 41 12 L 41 13 L 40 13 L 40 14 L 40 15 L 41 15 L 41 16 L 41 17 L 41 18 L 40 18 L 40 19 L 41 19 L 42 19 L 43 19 L 44 19 L 45 19 L 45 18 L 46 18 L 47 18 L 47 19 L 48 19 L 49 19 L 49 18 L 48 18 L 48 17 L 49 17 L 49 16 L 49 15 L 49 14 L 48 14 L 48 13 L 48 12 L 48 11 L 48 10 L 47 10 L 46 10 L 45 10 L 44 10 L 43 10 z M 42 12 L 43 12 L 44 12 L 45 12 L 46 12 L 47 12 L 47 13 L 47 14 L 47 15 L 47 16 L 47 17 L 46 17 L 45 17 L 44 17 L 43 17 L 42 17 L 42 16 L 42 15 L 42 14 L 42 13 L 42 12 z M 43 13 L 43 14 L 44 14 L 44 13 L 43 13 z M 45 14 L 45 15 L 44 15 L 43 15 L 43 16 L 44 16 L 45 16 L 46 16 L 46 15 L 46 14 L 45 14 z "
     id="rect73168" />
  <path
     style="fill:#000000"
     d="M 53 10 L 53 11 L 52 11 L 51 11 L 50 11 L 50 12 L 50 13 L 51 13 L 51 14 L 51 15 L 50 15 L 50 16 L 51 16 L 51 17 L 50 17 L 50 18 L 50 19 L 51 19 L 52 19 L 53 19 L 54 19 L 54 18 L 55 18 L 55 19 L 56 19 L 56 18 L 57 18 L 57 19 L 58 19 L 58 18 L 59 18 L 59 17 L 58 17 L 58 16 L 58 15 L 59 15 L 59 14 L 59 13 L 58 13 L 58 12 L 58 11 L 59 11 L 59 10 L 58 10 L 57 10 L 56 10 L 55 10 L 54 10 L 53 10 z M 52 12 L 53 12 L 54 12 L 55 12 L 56 12 L 57 12 L 57 13 L 57 14 L 57 15 L 57 16 L 57 17 L 56 17 L 55 17 L 54 17 L 53 17 L 52 17 L 52 16 L 52 15 L 52 14 L 52 13 L 52 12 z M 54 13 L 54 14 L 53 14 L 53 15 L 53 16 L 54 16 L 54 15 L 55 15 L 55 16 L 56 16 L 56 15 L 56 14 L 55 14 L 55 13 L 54 13 z "
     id="rect73261" />
  <path
     style="fill:#000000"
     d="M 63 10 L 63 11 L 62 11 L 61 11 L 60 11 L 60 12 L 60 13 L 61 13 L 61 14 L 60 14 L 60 15 L 60 16 L 61 16 L 61 17 L 61 18 L 61 19 L 62 19 L 63 19 L 64 19 L 65 19 L 66 19 L 66 18 L 67 18 L 67 19 L 68 19 L 69 19 L 69 18 L 68 18 L 68 17 L 68 16 L 69 16 L 69 15 L 68 15 L 68 14 L 68 13 L 69 13 L 69 12 L 68 12 L 68 11 L 68 10 L 67 10 L 66 10 L 65 10 L 64 10 L 63 10 z M 62 12 L 63 12 L 64 12 L 65 12 L 66 12 L 67 12 L 67 13 L 67 14 L 67 15 L 67 16 L 67 17 L 66 17 L 65 17 L 64 17 L 63 17 L 62 17 L 62 16 L 62 15 L 62 14 L 62 13 L 62 12 z M 64 13 L 64 14 L 65 14 L 65 13 L 64 13 z M 64 14 L 63 14 L 63 15 L 64 15 L 64 14 z M 65 15 L 65 16 L 66 16 L 66 15 L 65 15 z "
     id="rect73360" />
  <path
     style="fill:#000000"
     d="M 73 10 L 73 11 L 72 11 L 71 11 L 70 11 L 70 12 L 71 12 L 71 13 L 71 14 L 71 15 L 70 15 L 70 16 L 70 17 L 70 18 L 70 19 L 71 19 L 71 18 L 72 18 L 72 19 L 73 19 L 74 19 L 74 18 L 75 18 L 75 19 L 76 19 L 77 19 L 78 19 L 78 18 L 78 17 L 78 16 L 79 16 L 79 15 L 78 15 L 78 14 L 78 13 L 78 12 L 79 12 L 79 11 L 79 10 L 78 10 L 78 11 L 77 11 L 77 10 L 76 10 L 75 10 L 74 10 L 73 10 z M 72 12 L 73 12 L 74 12 L 75 12 L 76 12 L 77 12 L 77 13 L 77 14 L 77 15 L 77 16 L 77 17 L 76 17 L 75 17 L 74 17 L 73 17 L 72 17 L 72 16 L 72 15 L 72 14 L 72 13 L 72 12 z M 73 13 L 73 14 L 73 15 L 74 15 L 74 16 L 75 16 L 76 16 L 76 15 L 76 14 L 76 13 L 75 13 L 74 13 L 73 13 z "
     id="rect73451" />
  <path
     style="fill:#000000"
     d="M 83 10 L 83 11 L 82 11 L 81 11 L 81 12 L 81 13 L 81 14 L 80 14 L 80 15 L 80 16 L 80 17 L 81 17 L 81 18 L 82 18 L 82 19 L 83 19 L 84 19 L 85 19 L 86 19 L 87 19 L 88 19 L 89 19 L 89 18 L 89 17 L 89 16 L 89 15 L 89 14 L 88 14 L 88 13 L 88 12 L 89 12 L 89 11 L 88 11 L 87 11 L 87 10 L 86 10 L 85 10 L 84 10 L 83 10 z M 82 12 L 83 12 L 84 12 L 85 12 L 86 12 L 87 12 L 87 13 L 87 14 L 87 15 L 87 16 L 87 17 L 86 17 L 85 17 L 84 17 L 83 17 L 82 17 L 82 16 L 82 15 L 82 14 L 82 13 L 82 12 z M 83 13 L 83 14 L 83 15 L 83 16 L 84 16 L 85 16 L 86 16 L 86 15 L 85 15 L 84 15 L 84 14 L 85 14 L 86 14 L 86 13 L 85 13 L 84 13 L 83 13 z "
     id="rect73550" />
  <path
     style="fill:#000000"
     d="M 93 10 L 93 11 L 92 11 L 91 11 L 91 12 L 91 13 L 91 14 L 91 15 L 91 16 L 91 17 L 91 18 L 92 18 L 92 19 L 93 19 L 94 19 L 94 18 L 95 18 L 96 18 L 97 18 L 98 18 L 98 17 L 99 17 L 99 16 L 98 16 L 98 15 L 99 15 L 99 14 L 99 13 L 98 13 L 98 12 L 99 12 L 99 11 L 99 10 L 98 10 L 98 11 L 97 11 L 97 10 L 96 10 L 95 10 L 94 10 L 93 10 z M 98 18 L 98 19 L 99 19 L 99 18 L 98 18 z M 91 18 L 90 18 L 90 19 L 91 19 L 91 18 z M 92 12 L 93 12 L 94 12 L 95 12 L 96 12 L 97 12 L 97 13 L 97 14 L 97 15 L 97 16 L 97 17 L 96 17 L 95 17 L 94 17 L 93 17 L 92 17 L 92 16 L 92 15 L 92 14 L 92 13 L 92 12 z M 93 13 L 93 14 L 94 14 L 94 13 L 93 13 z M 94 14 L 94 15 L 95 15 L 95 14 L 94 14 z M 95 14 L 96 14 L 96 13 L 95 13 L 95 14 z M 95 15 L 95 16 L 96 16 L 96 15 L 95 15 z "
     id="rect73651" />
</svg>
